<?xml version="1.0" encoding="UTF-8" standalone="no"?><svg xmlns="http://www.w3.org/2000/svg" xmlns:xlink="http://www.w3.org/1999/xlink" fill="#f8f9f0" height="80" preserveAspectRatio="xMidYMid meet" version="1" viewBox="10.0 10.0 80.0 80.0" width="80" zoomAndPan="magnify"><g id="change1_1"><path d="M40,55v-1.667c0-3.682-2.985-6.667-6.667-6.667H30c-3.682,0-6.667,2.985-6.667,6.667V65c0,3.682,2.985,6.667,6.667,6.667 h3.333C37.015,71.667,40,68.682,40,65v-1.667h-4.997V65c0,0.921-0.746,1.667-1.667,1.667h-3.333c-0.918,0-1.667-0.746-1.667-1.667 V53.333c0-0.921,0.746-1.666,1.667-1.666h3.333c0.918,0,1.667,0.745,1.667,1.666V55H40z"/></g><g id="change1_2"><path d="M53.333 62.598L48.555 46.667 43.333 46.667 50.833 71.667 55.833 71.667 63.333 46.667 58.112 46.667z"/></g><g id="change1_3"><path d="M24.347,10l-4.113,23.333H10V90h6.667V40H70v50h7.937L90,21.577L24.347,10z M76.667,58.815V33.333H27.002l2.752-15.61 l52.524,9.261L76.667,58.815z"/></g><g id="change1_4"><path d="M38.333 78.333H63.333V83.333H38.333z"/></g><g id="change1_5"><path d="M23.333 78.333H33.333V83.333H23.333z"/></g></svg>